<svg xmlns="http://www.w3.org/2000/svg" xmlns:xlink="http://www.w3.org/1999/xlink" width="1139pt" height="708" viewBox="0 0 1139 531"><g id="graph0" class="graph" transform="scale(1 1) rotate(0) translate(4 527)"><title>default</title><polygon fill="#fff" stroke="transparent" points="-4 4 -4 -527 1135 -527 1135 4 -4 4"/><g id="clust1" class="cluster"><title>cluster_Genesis</title><polygon fill="none" stroke="#d9d9d9" points="8 -368 8 -515 214 -515 214 -368 8 -368"/><text x="111" y="-499.8" font-family="Times,serif" font-size="14" text-anchor="middle">Genesis</text></g><g id="clust2" class="cluster"><title>cluster_Byron</title><polygon fill="none" stroke="#d9d9d9" points="222 -152 222 -515 414 -515 414 -152 222 -152"/><text x="318" y="-499.8" font-family="Times,serif" font-size="14" text-anchor="middle">Byron</text></g><g id="clust3" class="cluster"><title>cluster_Multiera</title><polygon fill="none" stroke="#d9d9d9" points="422 -8 422 -515 1123 -515 1123 -8 422 -8"/><text x="772.5" y="-499.8" font-family="Times,serif" font-size="14" text-anchor="middle">Multiera</text></g><g id="node1" class="node"><title>N0</title><polygon fill="none" stroke="#000" points="183 -484 39 -484 39 -448 183 -448 183 -484"/><text x="111" y="-462.3" font-family="Times,serif" font-size="14" text-anchor="middle">GenesisBlockTask</text></g><g id="node2" class="node"><title>N1</title><polygon fill="none" stroke="#000" points="205.5 -412 16.5 -412 16.5 -376 205.5 -376 205.5 -412"/><text x="111" y="-390.3" font-family="Times,serif" font-size="14" text-anchor="middle">GenesisTransactionTask</text></g><g id="edge1" class="edge"><title>N0-&gt;N1</title><path fill="none" stroke="#000" d="M111,-447.7C111,-439.98 111,-430.71 111,-422.11"/><polygon fill="#000" stroke="#000" points="114.5 -422.1 111 -412.1 107.5 -422.1 114.5 -422.1"/></g><g id="node3" class="node"><title>N2</title><polygon fill="none" stroke="#000" points="383.5 -484 252.5 -484 252.5 -448 383.5 -448 383.5 -484"/><text x="318" y="-462.3" font-family="Times,serif" font-size="14" text-anchor="middle">ByronBlockTask</text></g><g id="node4" class="node"><title>N3</title><polygon fill="none" stroke="#000" points="406 -412 230 -412 230 -376 406 -376 406 -412"/><text x="318" y="-390.3" font-family="Times,serif" font-size="14" text-anchor="middle">ByronTransactionTask</text></g><g id="edge2" class="edge"><title>N2-&gt;N3</title><path fill="none" stroke="#000" d="M318,-447.7C318,-439.98 318,-430.71 318,-422.11"/><polygon fill="#000" stroke="#000" points="321.5 -422.1 318 -412.1 314.5 -422.1 321.5 -422.1"/></g><g id="node5" class="node"><title>N4</title><polygon fill="none" stroke="#000" points="392.5 -340 243.5 -340 243.5 -304 392.5 -304 392.5 -340"/><text x="318" y="-318.3" font-family="Times,serif" font-size="14" text-anchor="middle">ByronAddressTask</text></g><g id="edge3" class="edge"><title>N3-&gt;N4</title><path fill="none" stroke="#000" d="M318,-375.7C318,-367.98 318,-358.71 318,-350.11"/><polygon fill="#000" stroke="#000" points="321.5 -350.1 318 -340.1 314.5 -350.1 321.5 -350.1"/></g><g id="node6" class="node"><title>N5</title><polygon fill="none" stroke="#000" points="389 -268 247 -268 247 -232 389 -232 389 -268"/><text x="318" y="-246.3" font-family="Times,serif" font-size="14" text-anchor="middle">ByronOutputTask</text></g><g id="edge4" class="edge"><title>N4-&gt;N5</title><path fill="none" stroke="#000" d="M318,-303.7C318,-295.98 318,-286.71 318,-278.11"/><polygon fill="#000" stroke="#000" points="321.5 -278.1 318 -268.1 314.5 -278.1 321.5 -278.1"/></g><g id="node7" class="node"><title>N6</title><polygon fill="none" stroke="#000" points="383 -196 253 -196 253 -160 383 -160 383 -196"/><text x="318" y="-174.3" font-family="Times,serif" font-size="14" text-anchor="middle">ByronInputTask</text></g><g id="edge5" class="edge"><title>N5-&gt;N6</title><path fill="none" stroke="#000" d="M318,-231.7C318,-223.98 318,-214.71 318,-206.11"/><polygon fill="#000" stroke="#000" points="321.5 -206.1 318 -196.1 314.5 -206.1 321.5 -206.1"/></g><g id="node8" class="node"><title>N7</title><polygon fill="none" stroke="#000" points="795.5 -484 646.5 -484 646.5 -448 795.5 -448 795.5 -484"/><text x="721" y="-462.3" font-family="Times,serif" font-size="14" text-anchor="middle">MultieraBlockTask</text></g><g id="node9" class="node"><title>N8</title><polygon fill="none" stroke="#000" points="818 -412 624 -412 624 -376 818 -376 818 -412"/><text x="721" y="-390.3" font-family="Times,serif" font-size="14" text-anchor="middle">MultieraTransactionTask</text></g><g id="edge6" class="edge"><title>N7-&gt;N8</title><path fill="none" stroke="#000" d="M721,-447.7C721,-439.98 721,-430.71 721,-422.11"/><polygon fill="#000" stroke="#000" points="724.5 -422.1 721 -412.1 717.5 -422.1 724.5 -422.1"/></g><g id="node10" class="node"><title>N9</title><polygon fill="none" stroke="#000" points="810.5 -340 631.5 -340 631.5 -304 810.5 -304 810.5 -340"/><text x="721" y="-318.3" font-family="Times,serif" font-size="14" text-anchor="middle">MultieraMetadataTask</text></g><g id="edge7" class="edge"><title>N8-&gt;N9</title><path fill="none" stroke="#000" d="M721,-375.7C721,-367.98 721,-358.71 721,-350.11"/><polygon fill="#000" stroke="#000" points="724.5 -350.1 721 -340.1 717.5 -350.1 724.5 -350.1"/></g><g id="node11" class="node"><title>N10</title><polygon fill="none" stroke="#000" points="997 -340 829 -340 829 -304 997 -304 997 -340"/><text x="913" y="-318.3" font-family="Times,serif" font-size="14" text-anchor="middle">MultieraAddressTask</text></g><g id="edge8" class="edge"><title>N8-&gt;N10</title><path fill="none" stroke="#000" d="M767.97,-375.88C794.68,-366.14 828.32,-353.87 856.47,-343.61"/><polygon fill="#000" stroke="#000" points="857.99 -346.78 866.18 -340.07 855.59 -340.21 857.99 -346.78"/></g><g id="node19" class="node"><title>N18</title><polygon fill="none" stroke="#000" points="613.5 -340 430.5 -340 430.5 -304 613.5 -304 613.5 -340"/><text x="522" y="-318.3" font-family="Times,serif" font-size="14" text-anchor="middle">MultieraAssetMintTask</text></g><g id="edge19" class="edge"><title>N8-&gt;N18</title><path fill="none" stroke="#000" d="M672.57,-375.97C644.77,-366.19 609.66,-353.84 580.35,-343.52"/><polygon fill="#000" stroke="#000" points="581.24 -340.13 570.64 -340.11 578.92 -346.73 581.24 -340.13"/></g><g id="node20" class="node"><title>N19</title><polygon fill="none" stroke="#000" points="623.5 -268 430.5 -268 430.5 -232 623.5 -232 623.5 -268"/><text x="527" y="-246.3" font-family="Times,serif" font-size="14" text-anchor="middle">MultieraCip25EntryTask</text></g><g id="edge20" class="edge"><title>N9-&gt;N19</title><path fill="none" stroke="#000" d="M673.54,-303.88C646.43,-294.09 612.26,-281.77 583.74,-271.47"/><polygon fill="#000" stroke="#000" points="584.9 -268.17 574.3 -268.07 582.52 -274.75 584.9 -268.17"/></g><g id="node12" class="node"><title>N11</title><polygon fill="none" stroke="#000" points="927.5 -268 766.5 -268 766.5 -232 927.5 -232 927.5 -268"/><text x="847" y="-246.3" font-family="Times,serif" font-size="14" text-anchor="middle">MultieraOutputTask</text></g><g id="edge9" class="edge"><title>N10-&gt;N11</title><path fill="none" stroke="#000" d="M896.69,-303.7C888.69,-295.22 878.93,-284.86 870.18,-275.58"/><polygon fill="#000" stroke="#000" points="872.53 -272.98 863.13 -268.1 867.44 -277.78 872.53 -272.98"/></g><g id="node17" class="node"><title>N16</title><polygon fill="none" stroke="#000" points="758 -52 456 -52 456 -16 758 -16 758 -52"/><text x="607" y="-30.3" font-family="Times,serif" font-size="14" text-anchor="middle">MultieraAddressCredentialRelationTask</text></g><g id="edge15" class="edge"><title>N10-&gt;N16</title><path fill="none" stroke="#000" d="M865.45,-303.94C810.15,-284.55 715.84,-252.89 633,-232 549.24,-210.88 497.14,-262.5 442,-196 396.89,-141.6 492.5,-85.65 556.17,-56.17"/><polygon fill="#000" stroke="#000" points="557.66 -59.34 565.31 -52.02 554.76 -52.97 557.66 -59.34"/></g><g id="node18" class="node"><title>N17</title><polygon fill="none" stroke="#000" points="1064 -52 802 -52 802 -16 1064 -16 1064 -52"/><text x="933" y="-30.3" font-family="Times,serif" font-size="14" text-anchor="middle">MultieraTxCredentialRelationTask</text></g><g id="edge17" class="edge"><title>N10-&gt;N17</title><path fill="none" stroke="#000" d="M964.02,-303.83C1010.18,-285.25 1075.33,-250.72 1105,-196 1138.38,-134.44 1050.18,-83.21 988.09,-56.03"/><polygon fill="#000" stroke="#000" points="989.33 -52.75 978.76 -52.03 986.57 -59.18 989.33 -52.75"/></g><g id="node13" class="node"><title>N12</title><polygon fill="none" stroke="#000" points="671.5 -196 450.5 -196 450.5 -160 671.5 -160 671.5 -196"/><text x="561" y="-174.3" font-family="Times,serif" font-size="14" text-anchor="middle">MultieraReferenceInputTask</text></g><g id="edge10" class="edge"><title>N11-&gt;N12</title><path fill="none" stroke="#000" d="M777.4,-231.97C736.14,-221.87 683.69,-209.03 640.76,-198.52"/><polygon fill="#000" stroke="#000" points="641.46 -195.09 630.91 -196.11 639.79 -201.89 641.46 -195.09"/></g><g id="node14" class="node"><title>N13</title><polygon fill="none" stroke="#000" points="874.5 -196 689.5 -196 689.5 -160 874.5 -160 874.5 -196"/><text x="782" y="-174.3" font-family="Times,serif" font-size="14" text-anchor="middle">MultieraUsedInputTask</text></g><g id="edge11" class="edge"><title>N11-&gt;N13</title><path fill="none" stroke="#000" d="M830.93,-231.7C823.06,-223.22 813.44,-212.86 804.83,-203.58"/><polygon fill="#000" stroke="#000" points="807.25 -201.05 797.88 -196.1 802.12 -205.81 807.25 -201.05"/></g><g id="node15" class="node"><title>N14</title><polygon fill="none" stroke="#000" points="1095.5 -196 892.5 -196 892.5 -160 1095.5 -160 1095.5 -196"/><text x="994" y="-174.3" font-family="Times,serif" font-size="14" text-anchor="middle">MultieraUnusedInputTask</text></g><g id="edge12" class="edge"><title>N11-&gt;N14</title><path fill="none" stroke="#000" d="M882.96,-231.88C902.88,-222.39 927.82,-210.51 949.02,-200.42"/><polygon fill="#000" stroke="#000" points="950.63 -203.53 958.16 -196.07 947.62 -197.21 950.63 -203.53"/></g><g id="node16" class="node"><title>N15</title><polygon fill="none" stroke="#000" points="970 -124 744 -124 744 -88 970 -88 970 -124"/><text x="857" y="-102.3" font-family="Times,serif" font-size="14" text-anchor="middle">MultieraStakeCredentialTask</text></g><g id="edge13" class="edge"><title>N13-&gt;N15</title><path fill="none" stroke="#000" d="M800.54,-159.7C809.8,-151.05 821.16,-140.45 831.26,-131.03"/><polygon fill="#000" stroke="#000" points="833.75 -133.49 838.67 -124.1 828.98 -128.37 833.75 -133.49"/></g><g id="edge14" class="edge"><title>N14-&gt;N15</title><path fill="none" stroke="#000" d="M960.49,-159.88C942.16,-150.51 919.26,-138.81 899.67,-128.8"/><polygon fill="#000" stroke="#000" points="901.14 -125.62 890.64 -124.19 897.96 -131.86 901.14 -125.62"/></g><g id="edge16" class="edge"><title>N15-&gt;N16</title><path fill="none" stroke="#000" d="M796.16,-87.97C760.47,-77.97 715.21,-65.3 677.91,-54.85"/><polygon fill="#000" stroke="#000" points="678.68 -51.44 668.11 -52.11 676.8 -58.18 678.68 -51.44"/></g><g id="edge18" class="edge"><title>N15-&gt;N17</title><path fill="none" stroke="#000" d="M875.79,-87.7C885.17,-79.05 896.68,-68.45 906.91,-59.03"/><polygon fill="#000" stroke="#000" points="909.45 -61.45 914.43 -52.1 904.7 -56.3 909.45 -61.45"/></g><g id="edge21" class="edge"><title>N18-&gt;N19</title><path fill="none" stroke="#000" d="M523.24,-303.7C523.79,-295.98 524.45,-286.71 525.06,-278.11"/><polygon fill="#000" stroke="#000" points="528.56 -278.33 525.78 -268.1 521.57 -277.83 528.56 -278.33"/></g></g></svg>